<svg width="19" height="19" viewBox="0 0 19 19" fill="none" xmlns="http://www.w3.org/2000/svg">
<rect x="0.595947" y="0.204102" width="18" height="18" rx="4" fill="#4BB543"/>
<path d="M15.7664 11.594H14.8095L16.1391 6.79224H17.0959L15.7664 11.594ZM15.2694 6.94263C15.204 6.85109 15.1016 6.80531 14.9621 6.80531H9.70473L9.44535 7.74693H10.4022H14.2275L13.9485 8.75175H10.1232V8.74957H9.16635L8.37296 11.6158H9.32983L9.86166 9.69337H14.1621C14.2973 9.69337 14.4237 9.64759 14.5414 9.55605C14.6591 9.4645 14.7376 9.35116 14.7746 9.21602L15.3064 7.29356C15.3479 7.1497 15.3348 7.03418 15.2694 6.94263ZM7.81497 11.2932C7.76265 11.4829 7.58828 11.6158 7.39211 11.6158H2.45955C2.32441 11.6158 2.22414 11.5701 2.15875 11.4785C2.09337 11.387 2.07811 11.2736 2.11734 11.1385L3.32051 6.80531H4.27738L3.20281 10.6764H7.03029L8.10486 6.80531H9.06173L7.81497 11.2932Z" fill="white"/>
</svg>
