<svg width="24" height="24" viewBox="0 0 24 24" fill="none" xmlns="http://www.w3.org/2000/svg">
<path d="M14.4025 8.85645L10.6663 12.583L9.80778 11.7341C9.52339 11.4593 9.14335 11.3056 8.74784 11.3056C8.35232 11.3056 7.97228 11.4593 7.68789 11.7341C7.40731 12.0155 7.24976 12.3967 7.24976 12.7941C7.24976 13.1915 7.40731 13.5726 7.68789 13.854C9.33776 15.5039 9.6639 16.0363 10.6663 16.0363C11.6687 16.0363 11.6783 15.8156 16.5224 10.9763C16.7789 10.6905 16.916 10.3171 16.9056 9.93321C16.8952 9.54927 16.7381 9.18393 16.4665 8.91234C16.1949 8.64076 15.8295 8.4836 15.4456 8.47321C15.0617 8.46281 14.6884 8.59996 14.4025 8.85645ZM15.8413 10.2953L11.3425 14.7941C11.1628 14.9727 10.9197 15.073 10.6663 15.073C10.4129 15.073 10.1698 14.9727 9.99004 14.7941C8.33537 13.1442 8.21067 13.1106 8.21067 12.7941C8.21104 12.6881 8.24274 12.5846 8.30179 12.4966C8.36084 12.4086 8.4446 12.3401 8.54252 12.2996C8.64045 12.2591 8.74816 12.2484 8.85212 12.269C8.95607 12.2896 9.05162 12.3404 9.12673 12.4152L10.3258 13.6142C10.3704 13.6592 10.4234 13.6948 10.4818 13.7192C10.5403 13.7435 10.603 13.7561 10.6663 13.7561C10.7296 13.7561 10.7923 13.7435 10.8507 13.7192C10.9092 13.6948 10.9622 13.6592 11.0068 13.6142L15.0835 9.5375C15.1862 9.44838 15.3188 9.40148 15.4546 9.40626C15.5905 9.41104 15.7194 9.46715 15.8156 9.56326C15.9117 9.65938 15.9678 9.78836 15.9726 9.9242C15.9773 10.06 15.9304 10.1927 15.8413 10.2953Z" fill="#08A3B0" stroke="#08A3B0" stroke-width="0.2"/>
<path d="M12.105 4.53979C10.5872 4.53979 9.10358 4.98986 7.84163 5.83307C6.57968 6.67628 5.5961 7.87476 5.01529 9.27697C4.43448 10.6792 4.28251 12.2221 4.57861 13.7107C4.8747 15.1993 5.60556 16.5666 6.67876 17.6398C7.75197 18.713 9.11931 19.4439 10.6079 19.74C12.0965 20.0361 13.6394 19.8841 15.0416 19.3033C16.4438 18.7225 17.6423 17.7389 18.4855 16.477C19.3287 15.215 19.7788 13.7313 19.7788 12.2136C19.7788 10.1784 18.9703 8.22652 17.5312 6.7874C16.0921 5.34828 14.1402 4.53979 12.105 4.53979ZM12.105 18.9282C10.777 18.9282 9.47875 18.5344 8.37455 17.7966C7.27034 17.0588 6.40971 16.0101 5.9015 14.7832C5.39329 13.5562 5.26032 12.2062 5.5194 10.9037C5.77849 9.60116 6.41799 8.40473 7.35704 7.46568C8.29609 6.52663 9.49252 5.88712 10.795 5.62804C12.0975 5.36896 13.4476 5.50193 14.6745 6.01014C15.9015 6.51835 16.9501 7.37898 17.688 8.48319C18.4258 9.58739 18.8196 10.8856 18.8196 12.2136C18.8196 13.9944 18.1121 15.7023 16.8529 16.9615C15.5937 18.2208 13.8858 18.9282 12.105 18.9282Z" fill="#08A3B0" stroke="#08A3B0" stroke-width="0.2"/>
<path d="M23.4911 11.8924L21.5055 9.69572L22.129 6.81804C22.1551 6.70128 22.1365 6.57899 22.0771 6.47517C22.0176 6.37135 21.9215 6.2935 21.8076 6.25689L18.9875 5.33124L18.081 2.51111C18.0444 2.39721 17.9666 2.3011 17.8628 2.24165C17.7589 2.1822 17.6366 2.1637 17.5199 2.18977L14.6422 2.81327L12.4264 0.827669C12.3383 0.74813 12.2238 0.704102 12.1051 0.704102C11.9863 0.704102 11.8718 0.74813 11.7837 0.827669L9.58708 2.81327L6.7094 2.18977C6.59264 2.1637 6.47035 2.1822 6.36653 2.24165C6.26271 2.3011 6.18485 2.39721 6.14825 2.51111L5.2226 5.33124L2.40247 6.23771C2.28857 6.27431 2.19246 6.35217 2.13301 6.45599C2.07356 6.5598 2.05505 6.6821 2.08113 6.79886L2.70463 9.67654L0.719026 11.8924C0.639487 11.9805 0.595459 12.095 0.595459 12.2137C0.595459 12.3324 0.639487 12.4469 0.719026 12.535L2.70463 14.7317L2.08113 17.6093C2.05505 17.7261 2.07356 17.8484 2.13301 17.9522C2.19246 18.056 2.28857 18.1339 2.40247 18.1705L5.2226 19.077L6.12907 21.8971C6.16567 22.011 6.24352 22.1071 6.34734 22.1666C6.45116 22.226 6.57345 22.2445 6.69021 22.2184L9.56789 21.5949L11.7645 23.5805C11.8527 23.6601 11.9672 23.7041 12.0859 23.7041C12.2046 23.7041 12.3191 23.6601 12.4072 23.5805L14.6038 21.5949L17.4815 22.2184C17.5983 22.2445 17.7206 22.226 17.8244 22.1666C17.9282 22.1071 18.0061 22.011 18.0427 21.8971L18.9491 19.077L21.7693 18.1705C21.8832 18.1339 21.9793 18.056 22.0387 17.9522C22.0982 17.8484 22.1167 17.7261 22.0906 17.6093L21.4671 14.7317L23.4527 12.535C23.5377 12.4518 23.5887 12.3399 23.5958 12.2211C23.6028 12.1023 23.5655 11.9852 23.4911 11.8924ZM20.6134 14.2904C20.3928 14.5398 20.4551 14.4919 21.093 17.4271C18.3352 18.3144 18.2489 18.2616 18.1434 18.5878L17.2945 21.2256L14.5799 20.6453C14.2058 20.5686 14.1002 20.8036 12.1003 22.6165C9.87005 20.6021 9.97077 20.6357 9.70219 20.6357C9.62545 20.6357 9.83168 20.5973 6.88686 21.2256C5.99957 18.4679 6.05712 18.3815 5.72619 18.276L3.1075 17.4079L3.69263 14.6933C3.76457 14.3672 3.7262 14.4295 1.72142 12.2137C3.74539 9.9691 3.76457 10.0554 3.69263 9.73409L3.1075 7.01948L5.75017 6.17056C6.11468 6.05546 6.08111 5.79646 6.91084 3.22094C9.86526 3.85403 9.78852 3.91158 10.0475 3.70055L12.1051 1.83006L14.1626 3.69096C14.412 3.91158 14.364 3.84923 17.2993 3.21135C18.1866 5.96913 18.129 6.05546 18.4599 6.16097L21.0978 7.00989L20.5175 9.7245C20.4455 10.0506 20.4791 9.97869 22.4887 12.2041L20.6134 14.2904Z" fill="#08A3B0" stroke="#08A3B0" stroke-width="0.2"/>
</svg>
